<?xml version="1.0" encoding="UTF-8"?>
<svg xmlns="http://www.w3.org/2000/svg" viewBox="0 0 64 64" role="img" aria-label="Outils">
  <defs>
    <linearGradient id="g" x1="0" y1="0" x2="1" y2="1">
      <stop offset="0" stop-color="#ffd24d"/>
      <stop offset="0.55" stop-color="#ff7a18"/>
      <stop offset="1" stop-color="#14b8a6"/>
    </linearGradient>
  </defs>
  <circle cx="32" cy="32" r="28" fill="url(#g)" stroke="#0f172a" stroke-width="4"/>
  <!-- Wrench -->
  <path d="M41 16c-4 0-7 3-7 7 0 1 .2 2 .6 3l-16 16c-.8-.4-1.9-.6-2.9-.6-3.9 0-7 3.1-7 7 0 1.2.3 2.3.8 3.3l7-7 4.4 4.4-7 7c1 .5 2.1.8 3.3.8 3.9 0 7-3.1 7-7 0-1-.2-2-.6-2.9l16-16c1 .4 2 .6 3 .6 4 0 7-3 7-7 0-1.2-.3-2.3-.8-3.3l-6.2 6.2-4.4-4.4 6.2-6.2c-1-.5-2.1-.8-3.3-.8z"
        fill="#ffffff" stroke="#0f172a" stroke-width="3" stroke-linejoin="round"/>
  <!-- Spark -->
  <path d="M50 40l4-2-2 4 4 2-4 2 2 4-4-2-4 2 2-4-4-2 4-2-2-4z"
        fill="#fff" stroke="#0f172a" stroke-width="2" stroke-linejoin="round" opacity="0.9"/>
</svg>
