<svg xmlns="http://www.w3.org/2000/svg" version="1.1" xmlns:xlink="http://www.w3.org/1999/xlink" xmlns:svgjs="http://svgjs.dev/svgjs" viewBox="0 0 800 800"><defs><radialGradient id="cccircular-grad" r="50%" cx="50%" cy="50%">
       <stop offset="0%" stop-color="#cb839a" stop-opacity="0.5"></stop>
       <stop offset="50%" stop-color="hsl(341, 100%, 85%)" stop-opacity="0.5"></stop>
        <stop offset="100%" stop-color="#ffe6fe" stop-opacity="0.5"></stop>
      </radialGradient></defs><g fill="url(#cccircular-grad)"><circle r="800" cx="400" cy="0" opacity="0.05"></circle><circle r="768" cx="400" cy="0" opacity="0.09"></circle><circle r="736" cx="400" cy="0" opacity="0.13"></circle><circle r="704" cx="400" cy="0" opacity="0.17"></circle><circle r="672" cx="400" cy="0" opacity="0.21"></circle><circle r="640" cx="400" cy="0" opacity="0.25"></circle><circle r="608" cx="400" cy="0" opacity="0.29"></circle><circle r="576" cx="400" cy="0" opacity="0.33"></circle><circle r="544" cx="400" cy="0" opacity="0.37"></circle><circle r="512" cx="400" cy="0" opacity="0.41"></circle><circle r="480" cx="400" cy="0" opacity="0.45"></circle><circle r="448" cx="400" cy="0" opacity="0.49"></circle><circle r="416" cx="400" cy="0" opacity="0.53"></circle><circle r="384" cx="400" cy="0" opacity="0.56"></circle><circle r="352" cx="400" cy="0" opacity="0.60"></circle><circle r="320" cx="400" cy="0" opacity="0.64"></circle><circle r="288" cx="400" cy="0" opacity="0.68"></circle><circle r="256" cx="400" cy="0" opacity="0.72"></circle><circle r="224" cx="400" cy="0" opacity="0.76"></circle><circle r="192" cx="400" cy="0" opacity="0.80"></circle><circle r="160" cx="400" cy="0" opacity="0.84"></circle><circle r="128" cx="400" cy="0" opacity="0.88"></circle><circle r="96" cx="400" cy="0" opacity="0.92"></circle><circle r="64" cx="400" cy="0" opacity="0.96"></circle></g></svg>